# xmcd CD database file
# Copyright (C) 1993-1998 Ti Kan
# 
# Track frame offsets:
#     183
#     11158
#     21395
#     31208
#     42595
#     54858
#     67895
#     79095
#     88770
#     100883
#     111795
#     123445
#     134058
#     144495
# 
# Disc length: 2068 seconds
# 
# Revision: 1
# Processed by: cddbd v1.4b41PL1 Copyright (c) Steve Scherf et al.
# Submitted via: DiscPlay 4.0.4
# 
DISCID=bf08120e
DTITLE=Dolly Parton - Honky Tonk Angel
DYEAR=1900
DGENRE=
TTITLE0=It wasn't God who made Honky Tonk Angels
TTITLE1=Release me
TTITLE2=Girl left alone
TTITLE3=Making believe
TTITLE4=Two little orphans
TTITLE5=Little blossom
TTITLE6=Dumb blonde
TTITLE7=Something fishy
TTITLE8=Fuel to the flame
TTITLE9=The little things
TTITLE10=The company you keep
TTITLE11=Why, why, why
TTITLE12=Put it off until tomorrow
TTITLE13=Ping pong
EXTD=
EXTT0=
EXTT1=
EXTT2=
EXTT3=
EXTT4=
EXTT5=
EXTT6=
EXTT7=
EXTT8=
EXTT9=
EXTT10=
EXTT11=
EXTT12=
EXTT13=
PLAYORDER=
